<?xml version="1.0" encoding="UTF-8"?>
<svg xmlns="http://www.w3.org/2000/svg" version="1.1" width="100" height="100" viewBox="0 0 100 100"><rect x="0" y="0" width="100" height="100" fill="#ffffff"/><g transform="scale(1.754)"><g transform="translate(0,0)"><path fill-rule="evenodd" d="M9 0L9 1L8 1L8 2L9 2L9 3L8 3L8 4L10 4L10 5L8 5L8 7L9 7L9 8L6 8L6 9L5 9L5 8L0 8L0 9L2 9L2 12L1 12L1 13L2 13L2 14L0 14L0 15L1 15L1 16L2 16L2 17L5 17L5 14L6 14L6 15L7 15L7 14L6 14L6 13L7 13L7 12L5 12L5 14L3 14L3 13L2 13L2 12L3 12L3 9L5 9L5 10L4 10L4 11L8 11L8 10L10 10L10 9L11 9L11 8L12 8L12 9L13 9L13 10L11 10L11 11L10 11L10 13L11 13L11 14L10 14L10 15L8 15L8 16L10 16L10 18L9 18L9 17L8 17L8 18L5 18L5 19L4 19L4 18L1 18L1 17L0 17L0 19L1 19L1 20L0 20L0 22L1 22L1 23L0 23L0 24L1 24L1 23L2 23L2 24L3 24L3 25L0 25L0 26L3 26L3 27L2 27L2 31L1 31L1 32L0 32L0 34L1 34L1 32L2 32L2 31L3 31L3 32L5 32L5 33L7 33L7 34L6 34L6 35L5 35L5 34L4 34L4 35L3 35L3 33L2 33L2 35L1 35L1 37L3 37L3 38L4 38L4 40L3 40L3 39L2 39L2 38L1 38L1 39L0 39L0 42L1 42L1 44L2 44L2 45L1 45L1 46L0 46L0 48L5 48L5 47L7 47L7 46L9 46L9 45L8 45L8 44L9 44L9 43L10 43L10 44L11 44L11 45L10 45L10 47L9 47L9 49L8 49L8 51L9 51L9 52L8 52L8 57L10 57L10 56L11 56L11 55L13 55L13 56L12 56L12 57L16 57L16 55L15 55L15 54L16 54L16 53L14 53L14 52L17 52L17 53L19 53L19 54L20 54L20 55L19 55L19 56L17 56L17 57L19 57L19 56L22 56L22 55L21 55L21 54L23 54L23 55L24 55L24 56L23 56L23 57L24 57L24 56L25 56L25 57L26 57L26 55L25 55L25 54L28 54L28 53L30 53L30 54L29 54L29 55L30 55L30 56L27 56L27 57L31 57L31 54L32 54L32 52L33 52L33 51L32 51L32 52L31 52L31 49L32 49L32 48L31 48L31 47L32 47L32 46L31 46L31 45L32 45L32 44L31 44L31 43L33 43L33 42L34 42L34 43L35 43L35 42L37 42L37 43L38 43L38 41L37 41L37 39L38 39L38 40L39 40L39 39L40 39L40 40L41 40L41 42L39 42L39 44L40 44L40 43L42 43L42 44L43 44L43 45L42 45L42 46L43 46L43 47L42 47L42 48L43 48L43 49L41 49L41 50L40 50L40 49L39 49L39 52L41 52L41 53L40 53L40 55L38 55L38 57L39 57L39 56L40 56L40 55L42 55L42 54L43 54L43 56L41 56L41 57L44 57L44 56L47 56L47 57L48 57L48 56L47 56L47 55L49 55L49 56L50 56L50 55L51 55L51 57L52 57L52 54L53 54L53 56L54 56L54 57L56 57L56 56L55 56L55 54L54 54L54 53L53 53L53 52L55 52L55 51L56 51L56 50L57 50L57 49L56 49L56 48L57 48L57 47L56 47L56 46L54 46L54 44L55 44L55 45L57 45L57 44L55 44L55 43L56 43L56 42L57 42L57 41L56 41L56 42L55 42L55 41L53 41L53 42L54 42L54 43L48 43L48 42L47 42L47 44L50 44L50 45L47 45L47 46L46 46L46 43L45 43L45 42L44 42L44 43L42 43L42 42L43 42L43 41L44 41L44 39L43 39L43 38L44 38L44 37L41 37L41 38L36 38L36 37L38 37L38 36L34 36L34 37L35 37L35 38L36 38L36 40L35 40L35 39L34 39L34 38L33 38L33 40L30 40L30 39L32 39L32 38L31 38L31 35L32 35L32 36L33 36L33 35L35 35L35 34L31 34L31 35L30 35L30 34L27 34L27 33L26 33L26 32L25 32L25 30L26 30L26 31L28 31L28 33L30 33L30 32L33 32L33 33L37 33L37 34L38 34L38 35L39 35L39 36L41 36L41 35L39 35L39 34L45 34L45 33L46 33L46 31L47 31L47 32L49 32L49 36L48 36L48 37L49 37L49 38L48 38L48 39L47 39L47 38L45 38L45 41L47 41L47 40L48 40L48 39L50 39L50 38L51 38L51 36L55 36L55 35L56 35L56 32L57 32L57 31L56 31L56 30L57 30L57 28L55 28L55 27L56 27L56 26L55 26L55 23L56 23L56 22L57 22L57 20L56 20L56 18L57 18L57 15L56 15L56 14L55 14L55 13L57 13L57 12L56 12L56 10L54 10L54 11L52 11L52 8L51 8L51 10L50 10L50 8L49 8L49 9L48 9L48 8L47 8L47 9L48 9L48 10L47 10L47 11L48 11L48 12L47 12L47 13L48 13L48 14L49 14L49 16L50 16L50 17L48 17L48 15L47 15L47 14L46 14L46 10L45 10L45 9L46 9L46 8L45 8L45 9L44 9L44 7L45 7L45 5L44 5L44 7L43 7L43 4L39 4L39 3L41 3L41 2L42 2L42 3L47 3L47 5L46 5L46 7L47 7L47 5L48 5L48 0L44 0L44 1L43 1L43 0L41 0L41 1L38 1L38 0L35 0L35 1L38 1L38 2L37 2L37 3L35 3L35 2L33 2L33 4L34 4L34 3L35 3L35 5L36 5L36 8L35 8L35 6L34 6L34 7L33 7L33 6L32 6L32 3L31 3L31 4L27 4L27 3L28 3L28 2L29 2L29 1L31 1L31 0L29 0L29 1L27 1L27 2L26 2L26 0L21 0L21 1L20 1L20 0L17 0L17 1L15 1L15 2L14 2L14 3L12 3L12 4L11 4L11 3L10 3L10 2L9 2L9 1L12 1L12 0ZM13 0L13 1L14 1L14 0ZM32 0L32 1L33 1L33 0ZM21 1L21 2L19 2L19 3L20 3L20 4L18 4L18 2L16 2L16 4L15 4L15 3L14 3L14 5L16 5L16 4L18 4L18 5L17 5L17 8L16 8L16 6L15 6L15 7L14 7L14 6L13 6L13 5L10 5L10 6L9 6L9 7L10 7L10 6L11 6L11 7L12 7L12 6L13 6L13 7L14 7L14 9L15 9L15 10L13 10L13 11L12 11L12 12L11 12L11 13L14 13L14 14L11 14L11 15L10 15L10 16L11 16L11 18L12 18L12 16L11 16L11 15L13 15L13 16L14 16L14 17L13 17L13 18L14 18L14 17L15 17L15 21L13 21L13 20L14 20L14 19L12 19L12 21L10 21L10 19L9 19L9 20L8 20L8 19L6 19L6 20L8 20L8 21L10 21L10 22L8 22L8 23L5 23L5 21L4 21L4 22L3 22L3 20L4 20L4 19L3 19L3 20L1 20L1 21L2 21L2 23L3 23L3 24L5 24L5 26L7 26L7 25L6 25L6 24L9 24L9 23L10 23L10 25L9 25L9 26L10 26L10 27L9 27L9 28L10 28L10 29L9 29L9 31L10 31L10 29L12 29L12 31L11 31L11 32L10 32L10 33L9 33L9 34L10 34L10 35L11 35L11 34L10 34L10 33L12 33L12 37L11 37L11 36L7 36L7 35L8 35L8 34L7 34L7 35L6 35L6 36L5 36L5 37L4 37L4 38L7 38L7 39L6 39L6 40L5 40L5 41L6 41L6 42L5 42L5 43L4 43L4 44L3 44L3 43L2 43L2 44L3 44L3 45L4 45L4 46L3 46L3 47L5 47L5 45L6 45L6 46L7 46L7 45L6 45L6 44L8 44L8 40L9 40L9 39L10 39L10 37L11 37L11 39L12 39L12 40L11 40L11 41L9 41L9 42L11 42L11 44L12 44L12 45L11 45L11 48L10 48L10 49L9 49L9 50L11 50L11 51L10 51L10 52L12 52L12 53L9 53L9 54L10 54L10 55L11 55L11 54L12 54L12 53L13 53L13 52L14 52L14 51L19 51L19 53L23 53L23 54L24 54L24 53L23 53L23 52L20 52L20 51L25 51L25 52L26 52L26 51L25 51L25 50L26 50L26 49L25 49L25 50L21 50L21 49L24 49L24 48L23 48L23 47L25 47L25 48L26 48L26 47L27 47L27 48L29 48L29 47L28 47L28 46L29 46L29 45L31 45L31 44L30 44L30 43L29 43L29 41L30 41L30 42L32 42L32 41L30 41L30 40L28 40L28 39L26 39L26 38L28 38L28 37L29 37L29 36L30 36L30 35L29 35L29 36L28 36L28 37L27 37L27 35L26 35L26 33L25 33L25 32L20 32L20 31L21 31L21 29L22 29L22 31L23 31L23 29L24 29L24 28L25 28L25 29L26 29L26 28L25 28L25 27L26 27L26 25L28 25L28 26L29 26L29 25L30 25L30 24L31 24L31 25L32 25L32 26L31 26L31 28L32 28L32 29L31 29L31 30L32 30L32 29L33 29L33 30L35 30L35 31L33 31L33 32L35 32L35 31L38 31L38 30L39 30L39 31L41 31L41 32L39 32L39 33L38 33L38 34L39 34L39 33L42 33L42 32L44 32L44 33L45 33L45 31L46 31L46 30L47 30L47 31L48 31L48 28L47 28L47 29L46 29L46 30L44 30L44 31L43 31L43 30L42 30L42 27L41 27L41 26L40 26L40 25L43 25L43 24L42 24L42 23L44 23L44 21L45 21L45 24L44 24L44 26L43 26L43 27L44 27L44 29L45 29L45 28L46 28L46 26L47 26L47 25L50 25L50 26L53 26L53 27L54 27L54 26L53 26L53 24L52 24L52 22L51 22L51 21L55 21L55 22L54 22L54 23L55 23L55 22L56 22L56 20L51 20L51 21L49 21L49 22L47 22L47 21L48 21L48 20L47 20L47 18L48 18L48 17L47 17L47 16L44 16L44 14L45 14L45 12L43 12L43 13L44 13L44 14L42 14L42 11L44 11L44 9L43 9L43 10L42 10L42 9L41 9L41 8L42 8L42 5L39 5L39 4L38 4L38 3L37 3L37 4L38 4L38 5L37 5L37 7L38 7L38 5L39 5L39 7L40 7L40 6L41 6L41 8L39 8L39 9L38 9L38 8L37 8L37 9L35 9L35 8L33 8L33 7L32 7L32 6L31 6L31 8L33 8L33 10L37 10L37 9L38 9L38 11L39 11L39 10L42 10L42 11L40 11L40 12L39 12L39 13L38 13L38 15L37 15L37 17L35 17L35 16L36 16L36 14L37 14L37 13L35 13L35 12L37 12L37 11L35 11L35 12L34 12L34 11L31 11L31 10L32 10L32 9L31 9L31 10L29 10L29 12L27 12L27 11L28 11L28 10L27 10L27 9L26 9L26 6L25 6L25 4L26 4L26 3L25 3L25 4L24 4L24 3L23 3L23 2L25 2L25 1L23 1L23 2L22 2L22 1ZM45 1L45 2L47 2L47 1ZM21 2L21 3L22 3L22 2ZM23 4L23 5L24 5L24 4ZM19 5L19 6L18 6L18 7L19 7L19 6L20 6L20 7L21 7L21 6L22 6L22 7L23 7L23 9L22 9L22 10L20 10L20 9L21 9L21 8L20 8L20 9L19 9L19 8L17 8L17 9L19 9L19 10L20 10L20 12L19 12L19 13L18 13L18 12L15 12L15 13L18 13L18 15L19 15L19 16L17 16L17 15L15 15L15 14L14 14L14 16L17 16L17 18L16 18L16 20L17 20L17 18L18 18L18 21L17 21L17 22L18 22L18 21L19 21L19 22L20 22L20 23L19 23L19 24L18 24L18 23L17 23L17 24L16 24L16 23L15 23L15 24L16 24L16 25L15 25L15 26L14 26L14 28L15 28L15 29L13 29L13 30L14 30L14 31L15 31L15 29L17 29L17 30L16 30L16 31L19 31L19 30L20 30L20 28L19 28L19 26L20 26L20 24L23 24L23 26L22 26L22 27L21 27L21 28L22 28L22 29L23 29L23 28L24 28L24 27L23 27L23 26L25 26L25 25L26 25L26 24L25 24L25 23L26 23L26 22L25 22L25 20L26 20L26 21L27 21L27 24L29 24L29 23L28 23L28 22L31 22L31 24L32 24L32 21L27 21L27 20L29 20L29 19L28 19L28 18L27 18L27 17L28 17L28 16L25 16L25 15L26 15L26 14L27 14L27 15L28 15L28 13L27 13L27 12L26 12L26 11L25 11L25 10L26 10L26 9L25 9L25 8L24 8L24 7L25 7L25 6L24 6L24 7L23 7L23 6L22 6L22 5L21 5L21 6L20 6L20 5ZM27 5L27 8L30 8L30 5ZM28 6L28 7L29 7L29 6ZM48 6L48 7L49 7L49 6ZM15 8L15 9L16 9L16 8ZM53 8L53 9L54 9L54 8ZM55 8L55 9L56 9L56 8ZM6 9L6 10L7 10L7 9ZM15 10L15 11L16 11L16 10ZM17 10L17 11L18 11L18 10ZM22 10L22 11L21 11L21 12L20 12L20 16L21 16L21 17L18 17L18 18L19 18L19 19L21 19L21 18L23 18L23 19L22 19L22 20L19 20L19 21L21 21L21 22L24 22L24 21L23 21L23 20L25 20L25 18L26 18L26 20L27 20L27 18L26 18L26 17L25 17L25 18L23 18L23 15L21 15L21 14L23 14L23 13L26 13L26 12L23 12L23 11L24 11L24 10ZM48 10L48 11L49 11L49 12L48 12L48 13L50 13L50 16L51 16L51 17L50 17L50 18L49 18L49 19L50 19L50 18L51 18L51 19L53 19L53 18L56 18L56 15L55 15L55 14L54 14L54 13L55 13L55 12L54 12L54 13L53 13L53 12L52 12L52 13L50 13L50 11L49 11L49 10ZM13 11L13 12L14 12L14 11ZM30 11L30 12L29 12L29 13L30 13L30 14L29 14L29 15L30 15L30 16L29 16L29 18L31 18L31 17L32 17L32 18L33 18L33 17L32 17L32 14L31 14L31 13L32 13L32 12L31 12L31 11ZM21 12L21 13L22 13L22 12ZM33 12L33 13L34 13L34 12ZM40 13L40 14L39 14L39 15L38 15L38 17L37 17L37 18L35 18L35 19L31 19L31 20L35 20L35 22L37 22L37 23L38 23L38 20L41 20L41 21L39 21L39 22L40 22L40 23L39 23L39 24L38 24L38 25L37 25L37 24L36 24L36 23L33 23L33 24L36 24L36 25L35 25L35 26L38 26L38 27L39 27L39 28L41 28L41 27L40 27L40 26L38 26L38 25L39 25L39 24L40 24L40 23L42 23L42 22L43 22L43 20L45 20L45 18L44 18L44 16L43 16L43 17L41 17L41 18L40 18L40 17L39 17L39 16L40 16L40 15L42 15L42 14L41 14L41 13ZM52 13L52 15L51 15L51 16L52 16L52 15L53 15L53 13ZM2 14L2 16L4 16L4 15L3 15L3 14ZM24 14L24 15L25 15L25 14ZM33 14L33 16L35 16L35 14ZM54 15L54 16L53 16L53 17L52 17L52 18L53 18L53 17L54 17L54 16L55 16L55 15ZM6 16L6 17L7 17L7 16ZM30 16L30 17L31 17L31 16ZM38 17L38 18L37 18L37 19L35 19L35 20L37 20L37 19L38 19L38 18L39 18L39 19L40 19L40 18L39 18L39 17ZM41 18L41 20L43 20L43 19L44 19L44 18ZM46 20L46 21L47 21L47 20ZM6 21L6 22L7 22L7 21ZM15 21L15 22L16 22L16 21ZM41 21L41 22L42 22L42 21ZM11 22L11 25L10 25L10 26L11 26L11 25L12 25L12 24L13 24L13 25L14 25L14 22ZM49 22L49 23L50 23L50 24L51 24L51 25L52 25L52 24L51 24L51 22ZM23 23L23 24L24 24L24 23ZM46 23L46 24L47 24L47 23ZM17 24L17 25L16 25L16 26L15 26L15 28L17 28L17 29L18 29L18 28L17 28L17 27L18 27L18 26L19 26L19 25L18 25L18 24ZM17 25L17 26L18 26L18 25ZM45 25L45 26L44 26L44 27L45 27L45 26L46 26L46 25ZM12 26L12 27L10 27L10 28L13 28L13 26ZM33 26L33 28L35 28L35 29L37 29L37 30L38 30L38 29L37 29L37 27L36 27L36 28L35 28L35 27L34 27L34 26ZM5 27L5 30L8 30L8 27ZM27 27L27 30L30 30L30 27ZM49 27L49 30L52 30L52 27ZM0 28L0 29L1 29L1 28ZM3 28L3 31L4 31L4 28ZM6 28L6 29L7 29L7 28ZM28 28L28 29L29 29L29 28ZM50 28L50 29L51 29L51 28ZM54 28L54 29L53 29L53 30L54 30L54 29L55 29L55 30L56 30L56 29L55 29L55 28ZM39 29L39 30L41 30L41 31L42 31L42 30L41 30L41 29ZM6 31L6 32L7 32L7 33L8 33L8 31ZM12 31L12 32L13 32L13 31ZM49 31L49 32L50 32L50 35L51 35L51 31ZM52 31L52 32L53 32L53 33L52 33L52 34L53 34L53 35L55 35L55 32L56 32L56 31L55 31L55 32L53 32L53 31ZM14 32L14 34L15 34L15 35L14 35L14 36L13 36L13 37L12 37L12 38L14 38L14 39L13 39L13 40L15 40L15 39L16 39L16 40L17 40L17 41L18 41L18 42L17 42L17 43L18 43L18 42L19 42L19 44L20 44L20 45L18 45L18 44L16 44L16 45L18 45L18 47L15 47L15 46L14 46L14 47L15 47L15 48L13 48L13 47L12 47L12 50L13 50L13 51L14 51L14 50L13 50L13 49L15 49L15 48L16 48L16 49L17 49L17 50L18 50L18 49L19 49L19 50L20 50L20 49L21 49L21 48L22 48L22 47L23 47L23 46L25 46L25 47L26 47L26 46L27 46L27 45L29 45L29 44L27 44L27 45L26 45L26 46L25 46L25 44L26 44L26 43L28 43L28 42L26 42L26 41L28 41L28 40L26 40L26 39L25 39L25 40L24 40L24 39L23 39L23 38L24 38L24 37L26 37L26 35L25 35L25 33L23 33L23 35L22 35L22 33L21 33L21 34L20 34L20 33L19 33L19 32ZM15 33L15 34L16 34L16 35L15 35L15 36L16 36L16 37L14 37L14 38L16 38L16 37L17 37L17 40L18 40L18 37L17 37L17 35L19 35L19 36L20 36L20 37L19 37L19 38L20 38L20 39L19 39L19 40L21 40L21 41L19 41L19 42L20 42L20 43L21 43L21 44L22 44L22 45L20 45L20 46L19 46L19 47L18 47L18 48L19 48L19 47L21 47L21 46L23 46L23 44L25 44L25 43L26 43L26 42L25 42L25 43L24 43L24 42L23 42L23 41L24 41L24 40L23 40L23 39L21 39L21 38L23 38L23 37L24 37L24 36L25 36L25 35L23 35L23 36L21 36L21 35L19 35L19 34L17 34L17 33ZM47 33L47 34L48 34L48 33ZM42 35L42 36L47 36L47 35ZM6 36L6 37L7 37L7 38L9 38L9 37L7 37L7 36ZM49 36L49 37L50 37L50 36ZM56 36L56 37L55 37L55 39L52 39L52 40L51 40L51 41L52 41L52 40L55 40L55 39L57 39L57 36ZM41 39L41 40L43 40L43 39ZM46 39L46 40L47 40L47 39ZM2 40L2 41L1 41L1 42L2 42L2 41L3 41L3 42L4 42L4 41L3 41L3 40ZM6 40L6 41L7 41L7 40ZM11 41L11 42L12 42L12 44L15 44L15 43L16 43L16 42L14 42L14 41ZM34 41L34 42L35 42L35 41ZM49 41L49 42L50 42L50 41ZM6 42L6 43L7 43L7 42ZM21 42L21 43L22 43L22 42ZM4 44L4 45L5 45L5 44ZM33 44L33 45L34 45L34 44ZM35 44L35 46L33 46L33 50L34 50L34 52L35 52L35 53L37 53L37 54L36 54L36 55L35 55L35 54L34 54L34 53L33 53L33 54L34 54L34 55L33 55L33 56L35 56L35 57L37 57L37 56L36 56L36 55L37 55L37 54L38 54L38 48L39 48L39 47L41 47L41 45L39 45L39 46L38 46L38 44ZM44 44L44 47L45 47L45 44ZM12 45L12 46L13 46L13 45ZM51 45L51 46L50 46L50 48L51 48L51 47L52 47L52 48L54 48L54 51L55 51L55 50L56 50L56 49L55 49L55 48L54 48L54 46L53 46L53 45ZM1 46L1 47L2 47L2 46ZM36 46L36 48L38 48L38 47L37 47L37 46ZM47 46L47 47L46 47L46 48L44 48L44 50L43 50L43 51L42 51L42 50L41 50L41 52L43 52L43 54L44 54L44 53L45 53L45 54L46 54L46 55L47 55L47 53L48 53L48 51L47 51L47 50L48 50L48 48L47 48L47 47L49 47L49 46ZM6 48L6 49L7 49L7 48ZM34 48L34 50L35 50L35 52L37 52L37 50L35 50L35 48ZM46 48L46 49L47 49L47 48ZM27 49L27 52L30 52L30 49ZM49 49L49 52L52 52L52 49ZM28 50L28 51L29 51L29 50ZM44 50L44 51L43 51L43 52L45 52L45 53L47 53L47 51L46 51L46 50ZM50 50L50 51L51 51L51 50ZM56 52L56 53L57 53L57 52ZM50 53L50 54L52 54L52 53ZM17 54L17 55L18 55L18 54ZM0 0L0 7L7 7L7 0ZM1 1L1 6L6 6L6 1ZM2 2L2 5L5 5L5 2ZM50 0L50 7L57 7L57 0ZM51 1L51 6L56 6L56 1ZM52 2L52 5L55 5L55 2ZM0 50L0 57L7 57L7 50ZM1 51L1 56L6 56L6 51ZM2 52L2 55L5 55L5 52Z" fill="#000000"/></g></g></svg>
